<svg width="24" height="18" viewBox="0 0 24 18" fill="none" xmlns="http://www.w3.org/2000/svg">
<path d="M12 13.5C11.2252 13.5 10.4503 13.2458 9.78938 12.7308L0 5.11875V15.75C0 16.9922 1.00734 18 2.25 18H21.75C22.9927 18 24 16.9927 24 15.75V5.11875L14.2125 12.7359C13.5516 13.2469 12.7734 13.5 12 13.5ZM0.763594 3.81094L10.7105 11.55C11.4694 12.1406 12.5325 12.1406 13.2914 11.55L23.2383 3.81094C23.6766 3.43594 24 2.85938 24 2.25C24 1.00734 22.9922 0 21.75 0H2.25C1.00734 0 0 1.00734 0 2.25C0 2.85938 0.281719 3.43594 0.763594 3.81094Z" fill="white"/>
</svg>
