<svg width="24" height="22" viewBox="0 0 24 22" fill="none" xmlns="http://www.w3.org/2000/svg">
<path d="M12.0905 11.625V11.625C17.0442 11.6526 21.7018 14.9093 23.2949 20.0346M12.0905 11.625L22.1117 20.4395M12.0905 11.625H12.0877M12.0905 11.625H12.0877M23.2949 20.0346L22.8174 20.183L23.2948 20.0344C23.2948 20.0345 23.2949 20.0345 23.2949 20.0346ZM23.2949 20.0346C23.2979 20.0444 23.3025 20.0583 23.3081 20.0752C23.3287 20.1374 23.3626 20.2399 23.3818 20.326C23.4098 20.451 23.4337 20.6365 23.367 20.8377L22.8924 20.6802L23.3672 20.8371C23.3011 21.0369 23.1682 21.2097 22.9744 21.3116C22.7843 21.4115 22.5761 21.4219 22.3926 21.3752C22.027 21.2821 21.7515 20.9732 21.6336 20.586M21.6336 20.586C21.6337 20.5862 21.6338 20.5865 21.6338 20.5868L22.1117 20.4395M21.6336 20.586C21.6335 20.5856 21.6333 20.5851 21.6332 20.5847L22.1117 20.4395M21.6336 20.586C20.619 17.2952 18.0122 14.5018 14.643 13.6758M22.1117 20.4395C21.0536 17.0067 18.3275 14.0643 14.762 13.1902M14.643 13.6758L14.762 13.1902M14.643 13.6758C11.6136 12.9332 8.24849 13.5482 5.96067 15.5249C4.43742 16.841 3.29934 18.6495 2.76822 20.5578L2.75442 20.6074L2.7308 20.6532L2.28653 20.4237M14.643 13.6758C14.643 13.6758 14.643 13.6758 14.643 13.6758L14.762 13.1902M14.762 13.1902L2.28653 20.4237M2.28653 20.4237C2.7308 20.6532 2.73071 20.6533 2.73063 20.6535M2.28653 20.4237L2.73063 20.6535M12.0877 11.625C12.0038 11.625 11.9191 11.6254 11.8336 11.6265L11.8319 11.6266C7.0322 11.7082 3.14282 14.8611 1.47807 18.9501C1.44944 19.0204 1.41399 19.1019 1.3759 19.1894C1.28087 19.4078 1.16937 19.664 1.10607 19.8797C1.02313 20.1624 0.921264 20.6977 1.35952 21.054L1.35964 21.0541M12.0877 11.625L1.35964 21.0541M1.35964 21.0541C1.53806 21.199 1.75384 21.2711 1.9803 21.2413M1.35964 21.0541L1.9803 21.2413M1.9803 21.2413C2.18665 21.2142 2.34083 21.1102 2.43668 21.0272M1.9803 21.2413L2.43668 21.0272M2.43668 21.0272C2.53522 20.9418 2.60696 20.8484 2.65121 20.784M2.43668 21.0272L2.65121 20.784M2.65121 20.784C2.67438 20.7503 2.69266 20.7206 2.70574 20.6983M2.65121 20.784L2.70574 20.6983M2.70574 20.6983C2.71233 20.6871 2.71772 20.6774 2.72189 20.6698M2.70574 20.6983L2.72189 20.6698M2.72189 20.6698L2.72725 20.6599M2.72189 20.6698L2.72725 20.6599M2.72725 20.6599L2.72925 20.6561M2.72725 20.6599L2.72925 20.6561M2.72925 20.6561L2.73008 20.6545M2.72925 20.6561L2.73008 20.6545M2.73008 20.6545L2.73045 20.6538M2.73008 20.6545L2.73045 20.6538M2.73045 20.6538L2.73063 20.6535M2.73045 20.6538L2.73063 20.6535M12.0728 0.750204V0.750194L12.0697 0.750184C11.2753 0.747505 10.4855 0.916402 9.76526 1.25278L9.76523 1.25279C7.12609 2.48557 5.95488 5.92897 7.20656 8.48466L7.20656 8.48468C8.41792 10.9578 11.6221 12.1377 14.1283 11.077C16.3884 10.1205 17.7758 7.51066 17.3152 5.10871C16.8433 2.64735 14.5333 0.773611 12.0728 0.750204ZM10.6266 9.46535L10.6266 9.46534C9.09324 8.81641 8.14741 6.99298 8.4898 5.37203C8.8288 3.76736 10.3768 2.51677 12.0121 2.49999C12.0523 2.50001 12.0917 2.50035 12.1306 2.50116C14.2934 2.56407 15.9148 4.6602 15.6229 6.65523L15.6229 6.65525C15.4604 7.76639 14.7246 8.68428 13.7484 9.21969C12.7698 9.75646 11.6037 9.8789 10.6266 9.46535Z" fill="white" stroke="white"/>
</svg>
