<svg width="24" height="24" viewBox="0 0 24 24" fill="none" xmlns="http://www.w3.org/2000/svg">
<path d="M24 11.68C24 18.1333 18.72 23.36 12.2133 23.36C10.16 23.36 8.21333 22.8267 6.50667 21.8933L0 24L2.13333 17.7333C1.06667 15.9733 0.453333 13.8933 0.453333 11.7067C0.426667 5.22667 5.70667 0 12.2133 0C18.72 0 24 5.22667 24 11.68ZM12.2133 1.86667C6.74667 1.86667 2.32 6.26667 2.32 11.68C2.32 13.84 3.01333 15.8133 4.21333 17.44L2.98667 21.0933L6.8 19.8933C8.37333 20.9333 10.24 21.52 12.24 21.52C17.68 21.52 22.1333 17.12 22.1333 11.68C22.1333 6.24 17.68 1.86667 12.2133 1.86667ZM18.16 14.3733C18.08 14.2667 17.8933 14.1867 17.6 14.0267C17.3067 13.8933 15.8933 13.2 15.6267 13.0933C15.36 12.9867 15.1733 12.96 14.9867 13.2267C14.8 13.52 14.24 14.16 14.08 14.3467C13.92 14.5333 13.7333 14.56 13.4667 14.4267C13.1733 14.2933 12.24 13.9733 11.1467 13.0133C10.2933 12.2667 9.70667 11.3067 9.54667 11.04C9.38667 10.7467 9.52 10.5867 9.68 10.4533C9.81333 10.32 9.97333 10.1067 10.1067 9.94667C10.24 9.78667 10.2933 9.65333 10.4 9.46667C10.5067 9.28 10.4533 9.12 10.3733 8.96C10.2933 8.82667 9.73333 7.41333 9.49333 6.82667C9.25333 6.26667 9.01333 6.34667 8.85333 6.34667C8.69333 6.34667 8.48 6.32 8.29333 6.32C8.10667 6.32 7.78667 6.4 7.52 6.66667C7.25333 6.96 6.50667 7.65333 6.50667 9.06667C6.50667 10.48 7.54667 11.84 7.68 12.0267C7.81333 12.2133 9.68 15.2 12.6133 16.3467C15.5467 17.4933 15.5467 17.12 16.08 17.0667C16.6133 17.0133 17.7867 16.3733 18.0267 15.7067C18.24 15.0667 18.24 14.5067 18.16 14.3733Z" fill="white"/>
</svg>
